<svg width="68" height="12" viewBox="0 0 68 12" fill="none" xmlns="http://www.w3.org/2000/svg">
<g id="Clip path group">
<mask id="mask0_13046_455" style="mask-type:luminance" maskUnits="userSpaceOnUse" x="0" y="0" width="68" height="12">
<g id="clippath">
<path id="Vector" d="M6.49776 0.00160019H7.14732V0.00480301H8.01876H8.78087C8.91432 0.00480301 9.05098 0.00480301 9.19086 0.00480301L9.26964 0.00800583L9.35325 0.0128088C9.98995 0.0528356 10.8324 0.257772 11.482 0.947832C12.1058 1.61067 12.4708 2.86111 12.548 3.1413L12.5625 3.19733L13.9018 8.51929L14.3745 10.3941C14.4452 10.6759 14.2748 10.9625 13.9918 11.033C13.95 11.0426 13.9082 11.049 13.8648 11.049L12.1444 11.0538H11.9627C11.7296 11.0538 11.5238 10.9017 11.4563 10.6775L11.4177 10.5462L10.8485 8.31755H4.68895C4.39794 8.31755 4.16159 8.08219 4.16159 7.7908C4.16159 7.74917 4.16641 7.70754 4.17606 7.66752L4.60856 5.88072C4.66644 5.64377 4.87868 5.47726 5.12146 5.47726H10.1347L9.6089 3.43909L9.52207 3.13489C9.4658 2.93956 9.29376 2.80347 9.09118 2.79226H9.06545L7.25826 2.79707H7.12641L7.01708 2.79547L5.32565 2.79066H5.29993C5.10699 2.80187 4.94138 2.92835 4.87707 3.10927L4.86903 3.13489L4.78221 3.43909L2.97341 10.5462L2.93482 10.6775C2.87051 10.8921 2.67757 11.041 2.45569 11.0522H2.42835H2.24667L0.526299 11.0474C0.482887 11.0474 0.441084 11.0426 0.39928 11.0314C0.12595 10.9625 -0.0444786 10.6919 0.0101874 10.4182L0.0166182 10.3909L0.489319 8.51608L1.82864 3.19413L1.85918 3.08366L1.88973 2.97799C2.02157 2.53449 2.36886 1.51941 2.90909 0.944629C3.57312 0.240159 4.43974 0.0416283 5.07965 0.00800583H5.12146L5.20024 0.00320282H5.87714H6.50097L6.49776 0.00160019ZM25.7932 0.00160019H27.5924C27.8834 0.00160019 28.1198 0.23856 28.1198 0.528353V7.62909C28.1198 9.51995 26.5827 11.0538 24.6871 11.0538H18.4889C16.5933 11.0538 15.0562 9.52155 15.0562 7.62909V0.52675C15.0562 0.244962 15.2781 0.0144096 15.5578 0H15.5852H17.3892C17.6802 0 17.9165 0.235356 17.9165 0.52675V7.76038C17.9165 8.05177 18.1529 8.28713 18.4439 8.28713H24.7353C25.0263 8.28713 25.2627 8.05177 25.2643 7.76038V0.52675C25.2643 0.244962 25.4878 0.0144096 25.7675 0H25.7949L25.7932 0.00160019ZM41.2058 0.00160019C41.4985 0.00160019 41.7348 0.236959 41.7348 0.528353V2.17745C41.7348 2.46885 41.4985 2.7042 41.2058 2.7042H36.8358V10.5286C36.8358 10.82 36.5994 11.0554 36.3068 11.0554H34.4755C34.1829 11.0554 33.9465 10.82 33.9465 10.5286V2.7026H29.6874C29.3948 2.7026 29.1584 2.46725 29.1584 2.17585V0.52675C29.1584 0.235356 29.3948 0 29.6874 0H41.2026L41.2058 0.00160019ZM54.7614 0.00160019C55.054 0.00160019 55.2904 0.236959 55.2904 0.528353V2.27192C55.2904 2.56331 55.054 2.79867 54.7614 2.79867H45.9923C45.7013 2.79867 45.465 3.03242 45.4634 3.32222L45.4585 4.10994H54.7598C55.0524 4.10994 55.2888 4.3453 55.2888 4.63669V6.38346C55.2888 6.67325 55.0524 6.91021 54.7598 6.91021L45.473 6.91662L45.4682 7.68993C45.4666 7.98133 45.7013 8.21828 45.9939 8.21988H54.7598C55.0524 8.21988 55.2888 8.45524 55.2888 8.74664V10.5286C55.2888 10.82 55.0524 11.0554 54.7598 11.0554H46.039C44.1594 11.0554 42.6304 9.52476 42.5998 7.66271V7.60187L42.6047 3.41988C42.6063 1.53222 44.1466 0.00320282 46.0438 0.00320282H54.7598L54.7614 0.00160019ZM56.6313 0.00160019H58.4369C58.7295 0.00160019 58.9691 0.236957 58.9691 0.52675L58.9868 7.86605C58.9868 8.08379 59.1652 8.25991 59.3855 8.25991H66.8683C67.1626 8.25991 67.4005 8.49527 67.4005 8.78666V10.527C67.4005 10.8184 67.1626 11.0538 66.8683 11.0538H59.5672C57.6571 11.0506 56.1088 9.52155 56.1039 7.63229L56.0991 0.52675C56.0991 0.244962 56.3226 0.0144096 56.604 0H56.6313V0.00160019Z" fill="white"/>
</g>
</mask>
<g mask="url(#mask0_13046_455)">
<g id="Group">
<g id="Clip path group_2">
<mask id="mask1_13046_455" style="mask-type:luminance" maskUnits="userSpaceOnUse" x="-6" y="-25" width="80" height="60">
<g id="clippath-1">
<path id="Vector_2" d="M73.4734 -24.1182H-5.49489V34.83H73.4734V-24.1182Z" fill="white"/>
</g>
</mask>
<g mask="url(#mask1_13046_455)">
<g id="Group_2">
<path id="Vector_3" d="M67.5487 -0.142578H-0.147064V11.1978H67.5487V-0.142578Z" fill="#1D1D1F"/>
</g>
</g>
</g>
</g>
</g>
</g>
</svg>
