<svg width="16" height="19" viewBox="0 0 16 19" fill="none" xmlns="http://www.w3.org/2000/svg">
<g id="_&#229;&#155;&#190;&#229;&#177;&#130;_1" clip-path="url(#clip0_788_9384)">
<path id="Vector" d="M7.35076 18.7272C7.28719 18.6633 7.21502 18.5909 7.13255 18.5067C6.89887 18.2676 6.63942 17.9932 6.36107 17.6884C5.56382 16.818 4.76828 15.8751 4.02257 14.8902C2.96587 13.4945 2.1016 12.129 1.49679 10.8343C0.881669 9.51768 0.548333 8.30377 0.548333 7.20603C0.548333 3.22588 3.84216 0 7.90403 0C11.9659 0 15.258 3.22588 15.258 7.20603C15.258 8.42162 14.7941 9.83252 13.9504 11.4118C13.38 12.4826 12.6446 13.6073 11.7872 14.7639C11.0432 15.764 10.2494 16.7338 9.45387 17.6346C9.17551 17.9494 8.91606 18.2339 8.6841 18.4848C8.60163 18.5724 8.52946 18.6498 8.46589 18.7155C8.42809 18.7559 8.4006 18.7828 8.38685 18.798C8.1274 19.064 7.69613 19.069 7.43152 18.8097C7.41606 18.7946 7.39028 18.7677 7.35076 18.7306V18.7272ZM7.41949 17.8922C7.43152 17.8804 7.45558 17.8551 7.48994 17.8198C7.55008 17.7575 7.61881 17.6834 7.69613 17.5992C7.92121 17.3584 8.17036 17.0823 8.44183 16.7759C9.21332 15.9004 9.98651 14.9609 10.7047 13.9928C11.5278 12.885 12.2271 11.8125 12.7649 10.8057C13.5175 9.39646 13.9195 8.17244 13.9195 7.20771C13.9212 3.94985 11.2271 1.30988 7.90403 1.30988C4.58099 1.30988 1.88683 3.94984 1.88683 7.20603C1.88683 8.08994 2.17205 9.13044 2.71329 10.2888C3.27515 11.4909 4.09302 12.7806 5.09818 14.1107C5.81639 15.0603 6.58616 15.9711 7.35764 16.8129C7.6274 17.1076 7.87654 17.3719 8.10163 17.6009C8.17895 17.6817 8.24939 17.7507 8.30781 17.8097C8.34218 17.845 8.36623 17.8669 8.37826 17.8787L7.42293 17.8905L7.41949 17.8922ZM4.89543 7.20603C4.89543 5.57794 6.24251 4.25795 7.90403 4.25795C9.56555 4.25795 10.9126 5.57794 10.9126 7.20603C10.9126 8.83412 9.56555 10.1541 7.90403 10.1541C6.24251 10.1541 4.89543 8.83412 4.89543 7.20603ZM9.57414 7.20603C9.57414 6.30191 8.825 5.56783 7.90231 5.56783C6.97963 5.56783 6.23048 6.30191 6.23048 7.20603C6.23048 8.11015 6.97963 8.84422 7.90231 8.84422C8.825 8.84422 9.57414 8.11015 9.57414 7.20603Z" fill="#34C759"/>
</g>
<defs>
<clipPath id="clip0_788_9384">
<rect width="14.7097" height="19" fill="white" transform="matrix(-1 0 0 1 15.258 0)"/>
</clipPath>
</defs>
</svg>
