<svg width="150" height="150" viewBox="0 0 150 150" fill="none" xmlns="http://www.w3.org/2000/svg">
<g id="_&#229;&#155;&#190;&#229;&#177;&#130;_1" clip-path="url(#clip0_1689_5202)">
<path id="Vector" d="M99.6504 117.292V121.887C99.6504 123.489 100.301 125.077 101.421 126.215C102.555 127.368 104.063 128 105.682 128H116.347C117.951 128 119.459 127.368 120.594 126.215C121.714 125.077 122.364 123.503 122.364 121.887V114.482L122.613 114.313C123.692 113.583 124.619 112.599 125.269 111.461C126.03 110.14 126.445 108.622 126.431 107.077V80.7715C126.362 78.6075 125.601 76.5981 124.259 74.9259L123.512 74.0126H125.532C126.735 74.0126 127.856 73.5348 128.686 72.6917C129.53 71.8345 130 70.6963 130 69.4738V65.0334C130 63.8109 129.53 62.6727 128.686 61.8296C127.842 60.9724 126.722 60.4946 125.532 60.4946H118.546C117.536 60.5649 116.568 60.9302 115.752 61.5485C115.392 61.8155 115.074 62.1387 114.798 62.504L114.286 63.1645L109.79 54.9301C107.812 51.3187 104.921 48.2976 101.407 46.2038C97.9074 44.1101 93.9097 43 89.829 43H75V47.9322H89.829C93.0382 47.9322 96.1922 48.8034 98.9449 50.4616C101.712 52.1197 103.994 54.4945 105.543 57.3329L110.8 66.9585L109.984 67.0569C98.6406 68.4059 87.1177 69.0944 75.7331 69.0944H75.0138V74.0266C75.6501 74.0266 76.3003 74.0266 76.9366 74.0266C89.6353 74.0266 101.891 73.1273 113.511 71.3427L113.746 71.413L113.843 71.5113C114.604 72.2561 115.946 73.591 117.26 74.8978C117.315 74.954 119.86 77.4693 120.469 78.0595C121.175 78.7621 121.59 79.7457 121.59 80.7434V107.035C121.59 107.962 121.258 108.861 120.635 109.55C120.026 110.238 119.183 110.66 118.256 110.758C108.725 111.672 90.8526 113.189 75 113.33V118.262C82.0272 118.192 90.1056 117.869 99.0556 117.264L99.6504 117.222V117.278V117.292ZM118.436 69.2209L117.26 68.0546L118.809 65.4409H125.158V69.0944L118.436 69.2209ZM104.506 116.941L105.018 116.899C108.96 116.604 112.958 116.267 116.914 115.887L117.523 115.831V121.873C117.523 122.52 116.983 123.04 116.347 123.04H105.654C105.363 123.04 105.073 122.913 104.852 122.702C104.63 122.478 104.506 122.183 104.506 121.873V116.941Z" fill="#1D1D1F"/>
<path id="Vector_2" d="M119 89.6957C119 88.46 118.525 87.2534 117.687 86.3811C116.849 85.5088 115.69 85.0145 114.489 85H103.511C102.296 85 101.165 85.4943 100.327 86.3811C99.4749 87.2679 99 88.4455 99 89.6957V94.3043C99 95.5691 99.4749 96.7321 100.313 97.6189C101.165 98.5057 102.296 99 103.497 99H114.475C115.662 99 116.821 98.5057 117.659 97.6334C118.497 96.7612 118.986 95.5691 118.986 94.3188V89.7103L119 89.6957ZM114.098 93.8972H103.916V90.1028H114.098V93.8972Z" fill="#1D1D1F"/>
<path id="Vector_3" d="M93.573 107.519C94.8085 105.936 95.2804 103.903 94.8362 101.927L93.2538 95.1016C92.9206 93.658 92.1155 92.3546 90.9634 91.4296C89.8112 90.5046 88.3676 90 86.8962 90H75V94.9194H86.8962C87.6735 94.9194 88.3259 95.452 88.5064 96.2088L90.0889 103.034C90.1999 103.539 90.0889 104.043 89.7696 104.45C89.4503 104.856 88.9784 105.081 88.4786 105.081H75V110H88.4786C90.4775 110 92.3376 109.075 93.573 107.491V107.519Z" fill="#1D1D1F"/>
<g id="Clip path group">
<mask id="mask0_1689_5202" style="mask-type:luminance" maskUnits="userSpaceOnUse" x="20" y="21" width="55" height="105">
<g id="clippath">
<path id="Vector_4" d="M74.9652 21.9153H20.75V125.879H74.9652V21.9153Z" fill="white"/>
</g>
</mask>
<g mask="url(#mask0_1689_5202)">
<g id="Group">
<g id="Group_2">
<path id="Vector_5" d="M55.1127 71.6072L48.8015 86.7381H57.9486L39.3347 110.102L44.9787 93.6924L36.0957 93.7626L55.0988 71.6072H55.1127Z" fill="#1D1D1F"/>
<path id="Vector_6" d="M33.6922 61.9272C30.7729 61.9272 28.3818 59.5248 28.3818 56.5605V36.8355C28.3818 33.8852 30.759 31.4688 33.6922 31.4688H61.5087C64.428 31.4688 66.819 33.8711 66.819 36.8355V56.5605C66.819 59.5108 64.4419 61.9272 61.5087 61.9272H33.6922ZM33.5531 56.701H61.6199V36.7091H33.567V56.701H33.5531Z" fill="#1D1D1F"/>
<path id="Vector_7" d="M74.9652 119.627C74.9652 123.069 72.2128 125.879 68.793 125.879H26.9222C23.5164 125.879 20.75 123.097 20.75 119.627V29.0241C20.75 25.1044 23.9056 21.9153 27.7841 21.9153H67.9173C71.8096 21.9153 74.9513 25.1044 74.9513 29.0241V119.613H74.9652V119.627ZM30.5504 26.7763C27.798 26.7763 25.546 29.0382 25.546 31.834V117.309C25.546 119.346 27.1863 121.018 29.2159 121.018H66.4715C68.4872 121.018 70.1415 119.36 70.1415 117.309V31.834C70.1415 29.0522 67.9034 26.7763 65.137 26.7763H30.5504Z" fill="#1D1D1F"/>
</g>
</g>
</g>
</g>
</g>
<defs>
<clipPath id="clip0_1689_5202">
<rect width="150" height="150" fill="white"/>
</clipPath>
</defs>
</svg>
