<svg width="26" height="22" viewBox="0 0 26 22" fill="none" xmlns="http://www.w3.org/2000/svg">
<g id="_&#229;&#155;&#190;&#229;&#177;&#130;_1" clip-path="url(#clip0_7773_9859)">
<path id="Vector" d="M8.4807 22C7.10336 22 5.78253 21.4822 4.76165 20.5415C3.74803 19.6078 3.1108 18.3345 2.96625 16.9568L2.94669 16.7697H2.40945C1.1205 16.7697 0.063397 15.7419 0.00362268 14.4295L0 14.3114V10.675C0 9.36156 1.00892 8.28465 2.29714 8.22338L2.41307 8.21969H2.94742L2.96698 8.03258C3.10754 6.68145 3.72593 5.42628 4.70768 4.49736C5.69486 3.56401 6.97946 3.02887 8.32529 2.99123L8.48324 2.98938H9.30704L7.47106 0.896814C7.27833 0.675379 7.29826 0.33363 7.51562 0.136183C7.61198 0.049454 7.73624 0.00110718 7.86557 0.00110718C7.98077 0.00110718 8.08981 0.0380131 8.18183 0.108134L8.26588 0.187113L10.7242 2.98938H14.9606L17.4215 0.186744L17.5041 0.107765C17.595 0.0380131 17.707 0 17.8207 0C17.8428 0 17.8649 0.00147624 17.8866 0.00405965C18.0268 0.0221436 18.1515 0.0944792 18.2377 0.208149C18.3786 0.393417 18.3851 0.65508 18.254 0.846622L18.2112 0.901243L16.3789 2.98938H17.5168C18.8941 2.98938 20.2149 3.50754 21.2358 4.4479C22.2491 5.38162 22.8867 6.65488 23.0312 8.03258L23.0508 8.21969H23.5877C24.877 8.21969 25.9341 9.24752 25.9942 10.5599L25.9996 10.6795V14.3143C25.9996 15.6278 24.9907 16.7047 23.7025 16.766L23.5866 16.7693H23.0526L23.033 16.9564C22.8914 18.3076 22.273 19.5631 21.2912 20.4917C20.3044 21.425 19.0198 21.9601 17.6743 21.9978L17.5175 21.9996H8.47998L8.4807 22ZM8.4807 4.06408C7.30913 4.06408 6.20058 4.52135 5.35867 5.35136C4.51676 6.18175 4.03241 7.29557 3.99473 8.48763L3.99256 8.63525V16.3497C3.99256 17.5451 4.44213 18.6759 5.25905 19.5343C6.07415 20.3909 7.16567 20.8836 8.33326 20.922L8.47817 20.9238H17.5193C18.6927 20.9238 19.8023 20.4658 20.6446 19.6336C21.4847 18.8036 21.968 17.6912 22.0056 16.5018L22.0092 16.3515V15.3938L21.6966 15.5894C20.5899 16.2814 18.8927 17.1897 17.0936 17.5872L16.9944 17.6089L16.9513 17.7027C16.769 18.099 16.3745 18.3552 15.9463 18.3552H14.4958C13.8839 18.3552 13.3862 17.8481 13.3862 17.2247V16.8808C13.3862 16.2574 13.8839 15.7503 14.4958 15.7503H15.9463C16.3836 15.7503 16.7806 16.0124 16.9589 16.4183L17.0295 16.5789L17.1969 16.5353C19.36 15.9744 21.3593 14.6402 21.9205 14.2446L22.0089 14.1822V8.6382C22.0089 6.11605 19.9954 4.06408 17.5207 4.06408H8.48034H8.4807ZM2.40981 9.29624C1.7762 9.29624 1.21976 9.7535 1.0868 10.3835L1.08499 10.3923L1.06833 10.4913L1.05601 10.6677V14.3143C1.05601 15.0318 1.60666 15.6356 2.30874 15.6887L2.40546 15.6931L2.93365 15.6902V9.29624H2.40908H2.40981ZM23.0638 15.6935H23.588C24.2202 15.6928 24.7763 15.2355 24.911 14.6066L24.9128 14.597L24.9295 14.4981L24.9418 14.3217V10.6747C24.9418 9.91441 24.3347 9.29587 23.5884 9.29587H23.0642V15.6928L23.0638 15.6935Z" fill="#1D1D1F"/>
<path id="Vector_2" d="M9.33209 12.2853C8.63618 12.2853 8.07031 11.7088 8.07031 10.9999V9.50516C8.07031 8.79657 8.63581 8.2201 9.33137 8.21973C10.0266 8.21973 10.5924 8.79694 10.5939 9.50553V10.9999C10.5939 11.7084 10.028 12.2853 9.33209 12.2853ZM16.6423 12.2554C15.9638 12.241 15.4204 11.6889 15.4041 10.9976V9.50516C15.4041 8.7962 15.9699 8.21973 16.6659 8.21973C17.3618 8.21973 17.9276 8.7962 17.9276 9.50516V10.998C17.9142 11.6915 17.3498 12.2554 16.6688 12.2554C16.6688 12.2554 16.651 12.2554 16.6423 12.2554Z" fill="#1D1D1F"/>
</g>
<defs>
<clipPath id="clip0_7773_9859">
<rect width="26" height="22" fill="white"/>
</clipPath>
</defs>
</svg>
