<svg width="30" height="30" viewBox="0 0 30 30" fill="none" xmlns="http://www.w3.org/2000/svg">
<g id="Frame 1981">
<g id="Group 4908">
<g id="Group 4907">
<path id="Rectangle 1716" d="M21.8902 4.65169L24.0894 6.3891C24.7178 6.88552 24.8248 7.79763 24.3284 8.42602L17.903 16.5594C17.8534 16.6222 17.7886 16.6708 17.715 16.6997L17.6383 16.7212L13.5825 17.5307L13.3401 13.3194C13.3338 13.2094 13.3674 13.1005 13.4357 13.0141L19.8532 4.89066C20.3497 4.26227 21.2618 4.15527 21.8902 4.65169Z" stroke="#1D1D1F" stroke-width="1.1"/>
</g>
<path id="Rectangle 1717" d="M10.2433 21.3121L9.8771 20.9017L10.2433 21.3121ZM5.15991 25.8476H4.60991C4.60991 26.0644 4.73724 26.261 4.93507 26.3496C5.1329 26.4382 5.36433 26.4024 5.52608 26.258L5.15991 25.8476ZM25.1306 13.4077C25.1306 13.1039 24.8843 12.8577 24.5806 12.8577C24.2768 12.8577 24.0306 13.1039 24.0306 13.4077H25.1306ZM12.2048 9.80391C12.5086 9.80391 12.7548 9.55766 12.7548 9.25391C12.7548 8.95015 12.5086 8.70391 12.2048 8.70391V9.80391ZM5.70991 21.0583V10.2539H4.60991V21.0583H5.70991ZM23.5806 20.5083H10.909V21.6083H23.5806V20.5083ZM9.8771 20.9017L4.79375 25.4373L5.52608 26.258L10.6094 21.7225L9.8771 20.9017ZM5.70991 25.8476V21.0583H4.60991V25.8476H5.70991ZM24.0306 13.4077V20.0583H25.1306V13.4077H24.0306ZM6.15991 9.80391H12.2048V8.70391H6.15991V9.80391ZM10.909 20.5083C10.5284 20.5083 10.1611 20.6483 9.8771 20.9017L10.6094 21.7225C10.6919 21.6489 10.7985 21.6083 10.909 21.6083V20.5083ZM23.5806 21.6083C24.4366 21.6083 25.1306 20.9143 25.1306 20.0583H24.0306C24.0306 20.3068 23.8291 20.5083 23.5806 20.5083V21.6083ZM5.70991 10.2539C5.70991 10.0054 5.91138 9.80391 6.15991 9.80391V8.70391C5.30387 8.70391 4.60991 9.39787 4.60991 10.2539H5.70991Z" fill="#1D1D1F"/>
</g>
</g>
</svg>
